<svg xmlns="http://www.w3.org/2000/svg" width="512" height="512" viewBox="0 0 512 512" fill="none" aria-label="Quiet experience icon">
  <defs>
    <linearGradient id="gold" x1="80" y1="64" x2="432" y2="448" gradientUnits="userSpaceOnUse">
      <stop stop-color="#b88248"/>
      <stop offset="0.5" stop-color="#e9ba6c"/>
      <stop offset="1" stop-color="#e9d37e"/>
    </linearGradient>
    <linearGradient id="gold2" x1="64" y1="448" x2="448" y2="64" gradientUnits="userSpaceOnUse">
      <stop stop-color="#b88248" stop-opacity="0.9"/>
      <stop offset="0.5" stop-color="#e9ba6c" stop-opacity="0.95"/>
      <stop offset="1" stop-color="#e9d37e" stop-opacity="0.9"/>
    </linearGradient>
    <filter id="softGlow" x="-40%" y="-40%" width="180%" height="180%">
      <feGaussianBlur stdDeviation="2.6" result="b"/>
      <feColorMatrix in="b" type="matrix"
        values="1 0 0 0 0
                0 1 0 0 0
                0 0 1 0 0
                0 0 0 0.25 0" result="c"/>
      <feMerge>
        <feMergeNode in="c"/>
        <feMergeNode in="SourceGraphic"/>
      </feMerge>
    </filter>
  </defs>
  <g filter="url(#softGlow)" stroke-linecap="round" stroke-linejoin="round">

    <path d="M256 420c-64-40-116-86-140-132-20-38-14-84 18-112 32-28 78-22 108 10l14 14 14-14c30-32 76-38 108-10 32 28 38 74 18 112-24 46-76 92-140 132Z"
          stroke="url(#gold)" stroke-width="18"/>
    <path d="M156 276c24-18 52-18 76 0" stroke="#cfd2d6" stroke-opacity="0.65" stroke-width="14"/>
    <path d="M280 276c24-18 52-18 76 0" stroke="#cfd2d6" stroke-opacity="0.65" stroke-width="14"/>
    <path d="M188 316c18-14 38-14 56 0" stroke="#cfd2d6" stroke-opacity="0.55" stroke-width="12"/>
    <path d="M308 316c18-14 38-14 56 0" stroke="#cfd2d6" stroke-opacity="0.55" stroke-width="12"/>

  </g>
</svg>
