<svg xmlns="http://www.w3.org/2000/svg" width="512" height="512" viewBox="0 0 512 512" fill="none" aria-label="Safety icon">
  <defs>
    <linearGradient id="gold" x1="80" y1="64" x2="432" y2="448" gradientUnits="userSpaceOnUse">
      <stop stop-color="#b88248"/>
      <stop offset="0.5" stop-color="#e9ba6c"/>
      <stop offset="1" stop-color="#e9d37e"/>
    </linearGradient>
    <linearGradient id="gold2" x1="64" y1="448" x2="448" y2="64" gradientUnits="userSpaceOnUse">
      <stop stop-color="#b88248" stop-opacity="0.9"/>
      <stop offset="0.5" stop-color="#e9ba6c" stop-opacity="0.95"/>
      <stop offset="1" stop-color="#e9d37e" stop-opacity="0.9"/>
    </linearGradient>
    <filter id="softGlow" x="-40%" y="-40%" width="180%" height="180%">
      <feGaussianBlur stdDeviation="2.6" result="b"/>
      <feColorMatrix in="b" type="matrix"
        values="1 0 0 0 0
                0 1 0 0 0
                0 0 1 0 0
                0 0 0 0.25 0" result="c"/>
      <feMerge>
        <feMergeNode in="c"/>
        <feMergeNode in="SourceGraphic"/>
      </feMerge>
    </filter>
  </defs>
  <g filter="url(#softGlow)" stroke-linecap="round" stroke-linejoin="round">

    <path d="M256 64c54 34 112 28 144 40v132c0 93-62 164-144 212C174 400 112 329 112 236V104c32-12 90-6 144-40Z"
          stroke="url(#gold)" stroke-width="18"/>
    <path d="M176 280c0-26 20-48 46-48h68c18 0 34 10 42 26l12 24h16c10 0 18 8 18 18v22c0 10-8 18-18 18h-8"
          stroke="#cfd2d6" stroke-opacity="0.85" stroke-width="14"/>
    <path d="M176 340h-18c-10 0-18-8-18-18v-22c0-10 8-18 18-18h20"
          stroke="#cfd2d6" stroke-opacity="0.85" stroke-width="14"/>
    <path d="M204 340h104" stroke="#cfd2d6" stroke-opacity="0.85" stroke-width="14"/>
    <circle cx="214" cy="340" r="18" stroke="url(#gold2)" stroke-width="14"/>
    <circle cx="326" cy="340" r="18" stroke="url(#gold2)" stroke-width="14"/>
    <circle cx="256" cy="214" r="10" fill="url(#gold2)"/>

  </g>
</svg>
