<svg xmlns="http://www.w3.org/2000/svg" width="512" height="512" viewBox="0 0 512 512" fill="none" aria-label="Property value icon">
  <defs>
    <linearGradient id="gold" x1="80" y1="64" x2="432" y2="448" gradientUnits="userSpaceOnUse">
      <stop stop-color="#b88248"/>
      <stop offset="0.5" stop-color="#e9ba6c"/>
      <stop offset="1" stop-color="#e9d37e"/>
    </linearGradient>
    <linearGradient id="gold2" x1="64" y1="448" x2="448" y2="64" gradientUnits="userSpaceOnUse">
      <stop stop-color="#b88248" stop-opacity="0.9"/>
      <stop offset="0.5" stop-color="#e9ba6c" stop-opacity="0.95"/>
      <stop offset="1" stop-color="#e9d37e" stop-opacity="0.9"/>
    </linearGradient>
    <filter id="softGlow" x="-40%" y="-40%" width="180%" height="180%">
      <feGaussianBlur stdDeviation="2.6" result="b"/>
      <feColorMatrix in="b" type="matrix"
        values="1 0 0 0 0
                0 1 0 0 0
                0 0 1 0 0
                0 0 0 0.25 0" result="c"/>
      <feMerge>
        <feMergeNode in="c"/>
        <feMergeNode in="SourceGraphic"/>
      </feMerge>
    </filter>
  </defs>
  <g filter="url(#softGlow)" stroke-linecap="round" stroke-linejoin="round">

    <path d="M156 424V160c0-22 18-40 40-40h120c22 0 40 18 40 40v264"
          stroke="url(#gold)" stroke-width="18"/>
    <path d="M132 424h248" stroke="#cfd2d6" stroke-opacity="0.75" stroke-width="14"/>
    <path d="M196 188h36M196 236h36M196 284h36M280 188h36M280 236h36M280 284h36"
          stroke="#cfd2d6" stroke-opacity="0.55" stroke-width="14"/>
    <path d="M112 330c0-18 14-34 32-34h46c14 0 26 8 32 20l10 20h18c8 0 14 6 14 14v18c0 8-6 14-14 14h-6"
          stroke="#cfd2d6" stroke-opacity="0.8" stroke-width="12"/>
    <path d="M112 402h-10c-8 0-14-6-14-14v-18c0-8 6-14 14-14h12"
          stroke="#cfd2d6" stroke-opacity="0.8" stroke-width="12"/>
    <circle cx="134" cy="402" r="14" stroke="url(#gold2)" stroke-width="12"/>
    <circle cx="232" cy="402" r="14" stroke="url(#gold2)" stroke-width="12"/>
    <path d="M272 110l44-44 24 24" stroke="url(#gold2)" stroke-width="18"/>
    <path d="M316 66v96" stroke="url(#gold2)" stroke-width="18"/>

  </g>
</svg>
