<?xml version="1.0" encoding="UTF-8"?><svg id="Layer_1" xmlns="http://www.w3.org/2000/svg" xmlns:xlink="http://www.w3.org/1999/xlink" viewBox="0 0 830.83 587.7"><defs><style>.cls-1{fill:url(#linear-gradient-8);}.cls-2{fill:url(#linear-gradient-7);}.cls-3{fill:url(#linear-gradient-5);}.cls-4{fill:url(#linear-gradient-6);}.cls-5{fill:url(#linear-gradient-9);}.cls-6{fill:url(#linear-gradient-4);}.cls-7{fill:url(#linear-gradient-3);}.cls-8{fill:url(#linear-gradient-2);}.cls-9{fill:url(#linear-gradient);}.cls-10{fill:url(#linear-gradient-10);}.cls-11{fill:url(#linear-gradient-11);}.cls-12{fill:url(#linear-gradient-12);}.cls-13{fill:url(#linear-gradient-13);}.cls-14{fill:url(#linear-gradient-19);}.cls-15{fill:url(#linear-gradient-14);}.cls-16{fill:url(#linear-gradient-21);}.cls-17{fill:url(#linear-gradient-20);}.cls-18{fill:url(#linear-gradient-22);}.cls-19{fill:url(#linear-gradient-23);}.cls-20{fill:url(#linear-gradient-28);}.cls-21{fill:url(#linear-gradient-25);}.cls-22{fill:url(#linear-gradient-31);}.cls-23{fill:url(#linear-gradient-30);}.cls-24{fill:url(#linear-gradient-15);}.cls-25{fill:url(#linear-gradient-16);}.cls-26{fill:url(#linear-gradient-17);}.cls-27{fill:url(#linear-gradient-18);}.cls-28{fill:url(#linear-gradient-27);}.cls-29{fill:url(#linear-gradient-24);}.cls-30{fill:url(#linear-gradient-26);}.cls-31{fill:url(#linear-gradient-29);}</style><linearGradient id="linear-gradient" x1="73.63" y1="572.23" x2="679.94" y2="521.02" gradientUnits="userSpaceOnUse"><stop offset="0" stop-color="#b88248"/><stop offset=".13" stop-color="#543219"/><stop offset=".27" stop-color="#e9ba6c"/><stop offset=".43" stop-color="#c89a4e"/><stop offset=".59" stop-color="#b58941"/><stop offset=".59" stop-color="#b58a41"/><stop offset=".65" stop-color="#d1b162"/><stop offset=".7" stop-color="#e2ca76"/><stop offset=".74" stop-color="#e9d37e"/><stop offset=".76" stop-color="#e2cb79"/><stop offset=".79" stop-color="#d1b86c"/><stop offset=".82" stop-color="#b59858"/><stop offset=".86" stop-color="#8e6b3c"/><stop offset=".88" stop-color="#7a542d"/><stop offset="1" stop-color="#98692d"/></linearGradient><linearGradient id="linear-gradient-2" x1="73.48" y1="570.52" x2="679.8" y2="519.31" xlink:href="#linear-gradient"/><linearGradient id="linear-gradient-3" x1="74.06" y1="577.29" x2="680.37" y2="526.09" xlink:href="#linear-gradient"/><linearGradient id="linear-gradient-4" x1="74.29" y1="580.11" x2="680.61" y2="528.91" xlink:href="#linear-gradient"/><linearGradient id="linear-gradient-5" x1="74.71" y1="585.04" x2="681.02" y2="533.83" xlink:href="#linear-gradient"/><linearGradient id="linear-gradient-6" x1="74.86" y1="586.79" x2="681.17" y2="535.58" xlink:href="#linear-gradient"/><linearGradient id="linear-gradient-7" x1="75.13" y1="590.04" x2="681.44" y2="538.83" xlink:href="#linear-gradient"/><linearGradient id="linear-gradient-8" x1="75.56" y1="595.06" x2="681.87" y2="543.85" xlink:href="#linear-gradient"/><linearGradient id="linear-gradient-9" x1="75.41" y1="593.26" x2="681.72" y2="542.06" xlink:href="#linear-gradient"/><linearGradient id="linear-gradient-10" x1="75.93" y1="599.45" x2="682.24" y2="548.25" xlink:href="#linear-gradient"/><linearGradient id="linear-gradient-11" x1="76.16" y1="602.22" x2="682.47" y2="551.01" xlink:href="#linear-gradient"/><linearGradient id="linear-gradient-12" x1="76.59" y1="607.32" x2="682.9" y2="556.11" xlink:href="#linear-gradient"/><linearGradient id="linear-gradient-13" x1="76.8" y1="609.76" x2="683.11" y2="558.56" xlink:href="#linear-gradient"/><linearGradient id="linear-gradient-14" x1="76.97" y1="611.77" x2="683.28" y2="560.56" xlink:href="#linear-gradient"/><linearGradient id="linear-gradient-15" x1="77.14" y1="613.76" x2="683.45" y2="562.55" xlink:href="#linear-gradient"/><linearGradient id="linear-gradient-16" x1="77.33" y1="616.06" x2="683.64" y2="564.86" xlink:href="#linear-gradient"/><linearGradient id="linear-gradient-17" x1="77.6" y1="619.28" x2="683.91" y2="568.07" xlink:href="#linear-gradient"/><linearGradient id="linear-gradient-18" x1="77.87" y1="622.43" x2="684.18" y2="571.23" xlink:href="#linear-gradient"/><linearGradient id="linear-gradient-19" x1="116.76" y1="475.14" x2="952.32" y2="338.98" gradientUnits="userSpaceOnUse"><stop offset="0" stop-color="#1e1f24"/><stop offset=".17" stop-color="#2c2e35"/><stop offset=".2" stop-color="#3c3e45"/><stop offset=".27" stop-color="#686a6f"/><stop offset=".32" stop-color="#909295"/><stop offset=".38" stop-color="#6d6f71"/><stop offset=".48" stop-color="#262827"/><stop offset=".75" stop-color="#6e6c6d"/><stop offset="1" stop-color="#3e3d43"/></linearGradient><linearGradient id="linear-gradient-20" x1="118.43" y1="485.43" x2="954" y2="349.27" xlink:href="#linear-gradient-19"/><linearGradient id="linear-gradient-21" x1="120.88" y1="500.42" x2="956.44" y2="364.27" xlink:href="#linear-gradient-19"/><linearGradient id="linear-gradient-22" x1="122.29" y1="509.12" x2="957.86" y2="372.96" xlink:href="#linear-gradient-19"/><linearGradient id="linear-gradient-23" x1="125.74" y1="530.27" x2="961.31" y2="394.11" xlink:href="#linear-gradient-19"/><linearGradient id="linear-gradient-24" x1="124.45" y1="522.33" x2="960.01" y2="386.17" xlink:href="#linear-gradient-19"/><linearGradient id="linear-gradient-25" x1="129.52" y1="553.46" x2="965.09" y2="417.3" xlink:href="#linear-gradient-19"/><linearGradient id="linear-gradient-26" x1="132.52" y1="571.89" x2="968.09" y2="435.74" xlink:href="#linear-gradient-19"/><linearGradient id="linear-gradient-27" x1="225.7" y1="-46.52" x2="113.25" y2="1187.37" xlink:href="#linear-gradient"/><linearGradient id="linear-gradient-28" x1="701.83" y1="-3.13" x2="589.39" y2="1230.76" xlink:href="#linear-gradient"/><linearGradient id="linear-gradient-29" x1="595.34" y1="-12.84" x2="482.9" y2="1221.05" xlink:href="#linear-gradient"/><linearGradient id="linear-gradient-30" x1="239.3" y1="-45.28" x2="126.86" y2="1188.61" xlink:href="#linear-gradient"/><linearGradient id="linear-gradient-31" x1="483.43" y1="77.69" x2="362.95" y2="724.25" xlink:href="#linear-gradient-19"/></defs><path class="cls-9" d="M56.77,562.21h22.94v20.95h-22.94v-20.95ZM75.31,580.05v-14.74h-14.14v14.74h14.14Z"/><path class="cls-8" d="M96.1,562.21h4.4v12.43h-4.4v-12.43Z"/><path class="cls-7" d="M116.85,562.21h4.36v4.02c1.96-2.86,5.1-4.19,8.49-4.19,6.81,0,10.76,4.05,10.76,11.32v9.81h-11.31v-3.11h6.91v-6.32c0-5.31-2.62-8.49-7.19-8.49s-7.61,3.46-7.61,8.35v9.57h-4.4v-20.95Z"/><path class="cls-6" d="M169.2,565.31h-15.5v-3.11h22.77v3.11c-4.19,0-5.62,1.75-5.62,5.97v11.87h-4.4v-11.31c0-3.28.77-5.41,2.76-6.53Z"/><path class="cls-3" d="M191.91,562.21h22.24v11.7c0,6.64-2.58,9.25-9.29,9.25h-3.88v-3.11h3.11c4.09,0,5.66-1.75,5.66-6.08v-8.66h-13.44v22.39h-4.4v-25.49Z"/><path class="cls-4" d="M227.67,580.05h3.46v-17.84h13.3c6.01,0,8.17,2.48,8.17,9.39v11.56h-4.4v-11.59c0-4.57-1.33-6.25-4.92-6.25h-7.75v17.84h-7.86v-3.11Z"/><path class="cls-2" d="M268.82,562.21h4.36v4.02c1.96-2.86,5.1-4.19,8.49-4.19,6.81,0,10.76,4.05,10.76,11.32v9.81h-11.31v-3.11h6.91v-6.32c0-5.31-2.62-8.49-7.19-8.49s-7.61,3.46-7.61,8.35v9.57h-4.4v-20.95Z"/><path class="cls-1" d="M341.71,565.31h-12.26v-3.11h13.38c6.25,0,8.66,2.23,8.66,8.97v11.98h-4.4v-11.87c0-4.5-1.54-5.97-5.38-5.97ZM329.59,571.39h4.4v11.77h-4.4v-11.77Z"/><path class="cls-5" d="M367.35,562.21h4.4v12.43h-4.4v-12.43Z"/><path class="cls-10" d="M386.66,580.05h6.84v-14.74h-5.66v-3.11h10.06v20.95h-11.25v-3.11Z"/><path class="cls-11" d="M414.43,562.21h14.14c6.29,0,8.77,2.41,8.77,8.49v12.47h-4.4v-12.33c0-3.95-1.57-5.52-5.52-5.52h-8.59v17.84h-4.4v-20.95Z"/><path class="cls-12" d="M472.48,580.05h3.46v-17.84h13.3c6.01,0,8.17,2.48,8.17,9.39v11.56h-4.4v-11.59c0-4.57-1.33-6.25-4.92-6.25h-7.75v17.84h-7.86v-3.11Z"/><path class="cls-13" d="M513.63,562.21h4.4v20.95h-4.4v-20.95Z"/><path class="cls-15" d="M533.54,580.05h6.84v-14.74h-5.66v-3.11h10.06v20.95h-11.25v-3.11Z"/><path class="cls-24" d="M561.3,562.21h4.4v20.95h-4.4v-20.95Z"/><path class="cls-25" d="M596.23,565.31h-14.88v-3.11h19.28v20.95h-4.4v-17.84Z"/><path class="cls-26" d="M615.13,580.05h3.46v-17.84h13.3c6.01,0,8.17,2.48,8.17,9.39v11.56h-4.4v-11.59c0-4.57-1.33-6.25-4.92-6.25h-7.75v17.84h-7.86v-3.11Z"/><path class="cls-27" d="M656.27,580.05h16.97v-7.68c0-5.17-1.54-7.05-5.73-7.05h-6.84v8.66h-4.4v-11.77h12.22c6.67,0,9.15,2.76,9.15,10.16v10.79h-21.37v-3.11Z"/><path class="cls-14" d="M32.65,435.66h44.99l32.65,93.73h-20.31l-8.75-25.62H28.9l-8.59,25.62H0l32.65-93.73ZM76.55,489.86l-13.59-40.3h-15.78l-13.59,40.3h42.96Z"/><path class="cls-17" d="M103.74,435.66h20l32.49,77.17h.31l32.34-77.17h19.84l-39.83,93.73h-25.46l-39.68-93.73Z"/><path class="cls-16" d="M220.9,435.66h19.68v93.73h-19.68v-93.73Z"/><path class="cls-18" d="M252.93,435.66h20l32.49,77.17h.31l32.34-77.17h19.84l-39.83,93.73h-25.46l-39.68-93.73Z"/><path class="cls-19" d="M367.76,515.48h66.39v-65.92h-66.39v-13.9h86.07v79.83h15.93v13.9h-102.01v-13.9Z"/><path class="cls-29" d="M475.87,435.66h19.68v55.61h-19.68v-55.61Z"/><path class="cls-21" d="M513.83,515.48h66.39v-65.92h-66.39v-13.9h86.07v79.83h15.93v13.9h-102.01v-13.9Z"/><path class="cls-30" d="M627.56,435.66h22.49l37.96,42.96c16.56-1.25,23.43-7.97,23.43-24.21v-18.75h19.68v20c0,21.09-9.69,32.18-29.99,34.52l33.27,37.49v1.72h-23.12l-63.89-71.08h-.47l.31,8.44v62.64h-19.68v-93.73Z"/><path class="cls-28" d="M349.69,101.5l-37.2,96.36-56.12-132.9h-1.23l-126.86,302.73H50.47L206.73,0h99.89l43.06,101.5Z"/><polygon class="cls-20" points="753 0 626.15 302.73 624.92 302.73 584.13 206.47 545.08 298.36 574.68 367.69 674.56 367.69 830.83 0 753 0"/><polygon class="cls-31" points="619.63 51.54 641.54 0 563.71 0 542.11 51.54 619.63 51.54"/><polygon class="cls-23" points="242.16 254.22 264.07 202.68 186.24 202.68 164.64 254.22 242.16 254.22"/><polygon class="cls-22" points="531.89 75.94 436.86 302.73 435.63 302.73 365.59 139.8 328.4 236.15 385.38 367.69 485.27 367.69 609.26 75.94 531.89 75.94"/></svg>